<?xml version="1.0" encoding="UTF-8" standalone="no"?>
<!-- Created with Inkscape (http://www.inkscape.org/) -->

<svg
   xmlns:dc="http://purl.org/dc/elements/1.1/"
   xmlns:cc="http://creativecommons.org/ns#"
   xmlns:rdf="http://www.w3.org/1999/02/22-rdf-syntax-ns#"
   xmlns:svg="http://www.w3.org/2000/svg"
   xmlns="http://www.w3.org/2000/svg"
   xmlns:sodipodi="http://sodipodi.sourceforge.net/DTD/sodipodi-0.dtd"
   xmlns:inkscape="http://www.inkscape.org/namespaces/inkscape"
   id="svg3031"
   version="1.1"
   inkscape:version="0.48.4 r9939"
   width="512"
   height="512"
   sodipodi:docname="github.svg">
  <metadata
     id="metadata3037">
    <rdf:RDF>
      <cc:Work
         rdf:about="">
        <dc:format>image/svg+xml</dc:format>
        <dc:type
           rdf:resource="http://purl.org/dc/dcmitype/StillImage" />
        <dc:title></dc:title>
      </cc:Work>
    </rdf:RDF>
  </metadata>
  <defs
     id="defs3035" />
  <sodipodi:namedview
     pagecolor="#ffffff"
     bordercolor="#666666"
     borderopacity="1"
     objecttolerance="10"
     gridtolerance="10"
     guidetolerance="10"
     inkscape:pageopacity="0"
     inkscape:pageshadow="2"
     inkscape:window-width="1600"
     inkscape:window-height="838"
     id="namedview3033"
     showgrid="false"
     inkscape:zoom="1.3037281"
     inkscape:cx="198.15393"
     inkscape:cy="209.37895"
     inkscape:window-x="-8"
     inkscape:window-y="-8"
     inkscape:window-maximized="1"
     inkscape:current-layer="svg3031" />
  <path
     style="fill:none;stroke:#000000;stroke-width:1px;stroke-linecap:butt;stroke-linejoin:miter;stroke-opacity:1"
     d="m 389.65179,230.49959 c 9.46005,0 18.9201,0 28.38015,0 4.60219,0 9.20437,0 13.80656,0 1.78974,0 3.57948,0 5.36922,0 0.76703,0 1.5445,-0.1261 2.30109,0 1.03984,0.17331 2.02208,0.63628 3.06813,0.76703 2.02962,0.25371 4.11139,-0.28926 6.13624,0 0.8004,0.11435 1.50828,0.60847 2.3011,0.76703 0.86506,0.17302 2.83135,0 3.83515,0 0.25568,0 0.52448,-0.0808 0.76703,0 2.50382,0.83461 0.64296,1.00203 3.83516,1.53407 0.75659,0.1261 1.5445,-0.1261 2.30109,0 0.79752,0.13292 1.53407,0.51135 2.3011,0.76703 0.76703,0.25567 1.5504,0.46675 2.30109,0.76703 0.53082,0.21233 0.97345,0.65491 1.53406,0.76703 1.00285,0.20057 2.04542,0 3.06813,0 0.25567,0 0.58624,-0.18079 0.76703,0 0.18079,0.18079 -0.22869,0.65269 0,0.76703 0.12616,0.0631 2.77104,-0.0594 3.06812,0 0.79282,0.15856 1.51671,0.57094 2.3011,0.76703 0.24804,0.062 0.53834,-0.11434 0.76703,0 0.3234,0.16171 0.44362,0.60533 0.76703,0.76703 0.30412,0.15206 2.14428,-0.15681 2.30109,0 0.18079,0.18079 -0.22868,0.65269 0,0.76703 0.45737,0.22869 1.04895,-0.1617 1.53406,0 0.34303,0.11435 0.46618,0.56647 0.76703,0.76703 0.4757,0.31713 1.12981,0.36277 1.53407,0.76704 0.18079,0.18079 -0.51136,0 -0.76704,0 -0.25567,0 -0.51135,0 -0.76703,0"
     id="path3113"
     inkscape:connector-curvature="0" />
  <path
     style="fill:none;stroke:#000000;stroke-width:1px;stroke-linecap:butt;stroke-linejoin:miter;stroke-opacity:1"
     d="m 384.28257,240.471 c 3.31395,-0.27628 6.65605,0.23681 9.97141,0 15.64196,-1.11729 -4.00876,-0.46855 13.03953,-1.53407 3.06215,-0.19138 6.13624,0 9.20437,0 2.04542,0 4.09083,0 6.13625,0 0.76703,0 1.54896,-0.15042 2.30109,0 1.56063,-0.2664 2.48503,1.26404 3.83516,1.53407 0.75213,0.15042 1.5445,-0.1261 2.30109,0 0.79752,0.13292 1.53406,0.51135 2.30109,0.76703 0.76703,0.25567 1.57793,0.40545 2.3011,0.76703 0.32341,0.1617 0.44362,0.60532 0.76703,0.76703 0.22868,0.11434 0.58624,-0.18079 0.76703,0 0.18079,0.18079 -0.18079,0.58624 0,0.76703 0.18079,0.18079 0.52447,-0.0808 0.76703,0 0.54237,0.18079 0.99169,0.58624 1.53406,0.76703 0.24256,0.0808 0.53835,-0.11434 0.76703,0 0.32341,0.16171 0.41625,0.67934 0.76703,0.76703 0.74413,0.18603 1.53407,0 2.3011,0 0.51135,0 1.07669,-0.22868 1.53406,0 0.22868,0.11434 -0.18079,0.58624 0,0.76703 0.99572,0.99572 1.85295,0.76703 3.06812,0.76703 0.25568,0 0.52448,-0.0808 0.76703,0 0.54238,0.1808 0.97943,0.62838 1.53407,0.76704 0.74413,0.18603 1.57342,-0.24256 2.30109,0 0.54237,0.18079 0.97345,0.6549 1.53406,0.76703 0.75214,0.15042 1.53406,0 2.3011,0 1.27838,0 2.55677,0 3.83515,0 1.10101,0 3.79494,-0.20181 4.60219,0 0.35078,0.0877 0.424,0.65269 0.76703,0.76703 0.48511,0.1617 1.03264,-0.10029 1.53406,0 0.79282,0.15856 1.51671,0.57093 2.30109,0.76703 0.49609,0.12402 1.0767,-0.22869 1.53407,0 0.64681,0.32341 0.84801,1.30538 1.53406,1.53406 0.48511,0.16171 1.03797,-0.12402 1.53406,0 0.55464,0.13866 1.00324,0.5547 1.53406,0.76703 0.7507,0.30028 1.57793,0.40545 2.3011,0.76703 0.3234,0.16171 0.44362,0.60533 0.76703,0.76703 0.4097,0.20486 1.12435,-0.20485 1.53406,0 0.32341,0.16171 0.44362,0.60533 0.76703,0.76704 0.22868,0.11434 0.58624,-0.1808 0.76703,0 0.18079,0.18079 -0.18079,0.58624 0,0.76703 0.18079,0.18079 0.58624,-0.18079 0.76703,0 0.18079,0.18079 -0.18079,0.58624 0,0.76703 0.18079,0.18079 0.53835,-0.11434 0.76703,0 1.89565,0.94782 -0.26476,0.76703 1.53407,0.76703"
     id="path3117"
     inkscape:connector-curvature="0" />
  <path
     style="fill:none;stroke:#000000;stroke-width:1px;stroke-linecap:butt;stroke-linejoin:miter;stroke-opacity:1"
     d="m 128.86122,242.77209 c -2.52297,-1.03434 -5.03593,-0.76703 -7.67031,-0.76703 -0.76703,0 -1.53406,0 -2.30109,0 -0.76703,0 -1.5445,-0.1261 -2.3011,0 -0.79752,0.13292 -1.50827,0.60846 -2.30109,0.76703 -0.50142,0.10028 -1.02271,0 -1.53406,0 -1.53406,0 -3.06812,0 -4.60219,0 -0.25567,0 -0.51135,0 -0.76703,0 -0.25568,0 -0.53834,-0.11434 -0.76703,0 -0.32341,0.1617 -0.44362,0.60533 -0.76703,0.76703 -0.4973,0.24865 -3.87956,-0.24088 -4.60219,0 -0.54237,0.18079 -0.99169,0.58624 -1.534059,0.76703 -0.242556,0.0808 -0.511354,0 -0.767031,0 -1.789739,0 -3.579478,0 -5.369218,0 -0.511354,0 -1.048949,-0.1617 -1.534062,0 -0.542373,0.18079 -0.973453,0.65491 -1.534062,0.76703 -0.752136,0.15043 -1.534062,0 -2.301093,0 -0.767031,0.25568 -1.508273,0.60847 -2.301093,0.76703 -1.47506,0.29502 -3.127127,-0.29501 -4.602187,0 -0.792821,0.15857 -1.516712,0.57094 -2.301093,0.76703 -0.99615,0.24904 -2.858626,-0.24413 -3.835156,0 -0.554641,0.13866 -0.991689,0.58624 -1.534062,0.76704 -0.722631,0.24087 -4.104885,-0.24866 -4.602186,0 -0.323409,0.1617 -0.424005,0.65268 -0.767031,0.76703 -0.485113,0.1617 -1.032639,-0.10029 -1.534063,0 -0.79282,0.15856 -1.503572,0.63411 -2.301093,0.76703 -1.039001,0.17316 -4.099103,0 -5.369217,0 -0.255677,0 -0.586241,-0.18079 -0.767032,0 -1.587014,1.58701 2.425169,-0.062 -0.767031,1.53406 -0.228684,0.11434 -0.524474,-0.0808 -0.767031,0 -1.084745,0.36158 -1.958841,1.25674 -3.068124,1.53406 -0.373691,0.0934 -2.662539,-0.20279 -3.068124,0 -0.323409,0.16171 -0.511354,0.51136 -0.767031,0.76703 -0.511355,0 -1.04895,-0.1617 -1.534063,0 -0.686053,0.22869 -0.887244,1.21066 -1.534062,1.53407 -0.613625,0.30681 -1.687468,-0.30682 -2.301093,0 -0.323409,0.1617 -0.424004,0.65268 -0.767031,0.76703 -0.485113,0.1617 -1.037976,-0.12403 -1.534062,0 -0.554642,0.13866 -0.99169,0.58624 -1.534062,0.76703 -0.242557,0.0808 -0.511355,0 -0.767032,0 -0.511354,0 -1.022708,0 -1.534062,0 -2.045416,0 -4.090832,0 -6.136248,0 -0.511354,0 -1.022709,0 -1.534063,0 -0.255677,0 -0.58624,-0.18079 -0.767031,0 -0.180791,0.18079 0.228685,0.65269 0,0.76703 -0.686053,0.34303 -1.534062,0 -2.301093,0"
     id="path3125"
     inkscape:connector-curvature="0" />
  <path
     style="fill:none;stroke:#000000;stroke-width:1px;stroke-linecap:butt;stroke-linejoin:miter;stroke-opacity:1"
     d="m 125.7931,231.26662 c -7.15896,0 -14.31792,0 -21.47687,0 -0.25568,0 -0.51136,0 -0.76703,0 -0.25568,0 -0.76703,0.25568 -0.76703,0 0,-0.25567 1.0227,0 0.76703,0 -0.76703,0 -1.53407,0 -2.3011,0 -0.51135,0 -1.03264,0.10029 -1.534059,0 -0.792821,-0.15856 -1.516712,-0.57093 -2.301093,-0.76703 -0.604347,-0.15108 -2.56778,0 -3.068125,0 -2.55677,0 -5.11354,0 -7.67031,0 -6.90328,0 -13.80656,0 -20.70984,0 -3.835155,0 -7.670311,0 -11.505466,0 -0.790202,0 -5.142824,-0.11319 -5.369218,0 -0.323408,0.16171 -0.443622,0.60533 -0.767031,0.76703 -0.416104,0.20806 -2.858247,-0.20987 -3.068124,0 -0.180791,0.18079 0.180791,0.58624 0,0.76703 -0.180791,0.18079 -0.511354,0 -0.767031,0 -0.255677,0 -0.767031,0.25568 -0.767031,0 0,-0.25567 0.995715,-0.11434 0.767031,0 -0.723164,0.36159 -1.534062,0.51136 -2.301093,0.76703 -0.767031,0.25568 -1.516712,0.57094 -2.301094,0.76704 -0.521999,0.1305 -1.881615,-0.20974 -2.301093,0 -0.646817,0.3234 -0.848009,1.30537 -1.534062,1.53406 -0.599659,0.19988 -4.180088,-0.21105 -4.602187,0 -0.323408,0.1617 -0.511354,0.51135 -0.767031,0.76703 -0.511354,0 -1.076693,-0.22869 -1.534062,0 -0.228684,0.11434 0.114342,0.53835 0,0.76703 -0.532335,1.06467 -1.364793,0.76703 -2.301093,0.76703"
     id="path3135"
     inkscape:connector-curvature="0" />
  <path
     style="fill:none;stroke:#000000;stroke-width:1px;stroke-linecap:butt;stroke-linejoin:miter;stroke-opacity:1"
     d="m 309.88056,83.996654 c 2.7232,9.797443 -2.67753,1.910498 -3.83516,3.068125 -0.18079,0.180791 0.18079,0.58624 0,0.767031 -0.18079,0.180791 -0.58624,-0.180791 -0.76703,0 -0.18079,0.180791 0.18079,0.58624 0,0.767031 -0.18079,0.180791 -0.53834,-0.114342 -0.76703,0 -0.32341,0.161704 -0.51135,0.511354 -0.76703,0.767031 -0.25568,0.255677 -0.51135,0.511354 -0.76703,0.767031 -0.40382,0.403815 -2.09627,1.891434 -2.30109,2.301093 0,2.045417 0.25567,-0.255677 -0.76704,0.767031 -1.58701,1.587015 2.42517,-0.06204 -0.76703,1.534063 -0.22868,0.114342 -0.58624,-0.180791 -0.76703,0 -0.18079,0.180791 0.11434,0.538346 0,0.767031 -0.1617,0.323408 -0.60532,0.443622 -0.76703,0.767031 -0.22868,0.457369 0.36158,1.17248 0,1.534062 -0.18079,0.180791 -0.58624,-0.180791 -0.76703,0 -0.18079,0.180791 0.18079,0.58624 0,0.767031 -1.02271,1.022708 -0.76703,-1.278385 -0.76703,0.767031"
     id="path3145"
     inkscape:connector-curvature="0" />
  <path
     style="fill:#000000;stroke:#000000;stroke-width:0.54237288"
     d="m 288,422.05541 c -1.93898,-0.52762 -4.68475,-0.98323 -6.10169,-1.01245 -1.41695,-0.0292 -2.57628,-0.28462 -2.57628,-0.56756 0,-0.28293 -0.54915,-1.11762 -1.22034,-1.85487 -0.67118,-0.73724 -1.62504,-1.7871 -2.11968,-2.33302 -0.49464,-0.54593 -2.02007,-2.07847 -3.38983,-3.40567 -1.36977,-1.32718 -2.49049,-2.73057 -2.49049,-3.11864 0,-0.38806 -0.20758,-0.70557 -0.46129,-0.70557 -0.44237,0 -2.91095,-3.5892 -5.22247,-7.59322 -1.06662,-1.84759 -1.0959,-2.77496 -1.0959,-34.71187 0,-30.01089 -0.18472,-34.99534 -1.35679,-36.61017 -0.21652,-0.2983 -0.55638,-1.9907 -0.75525,-3.76089 -0.19887,-1.77018 -0.56642,-3.47866 -0.81676,-3.79661 -0.25035,-0.31795 -0.6201,-1.49334 -0.82166,-2.61199 -0.36342,-2.01687 -0.38828,-2.0339 -2.96972,-2.0339 -4.51399,0 -4.39096,-0.5261 -4.44941,19.02576 -0.028,9.37312 -0.2935,19.36068 -0.58995,22.19458 -0.82119,7.85006 -1.14404,25.49153 -0.46653,25.49153 0.68943,0 0.78215,9.02214 0.0971,9.44554 -0.25738,0.15907 -0.78595,1.45483 -1.17458,2.87947 -0.38863,1.42463 -1.378,3.56651 -2.19859,4.75973 -0.82059,1.19322 -1.65379,2.96272 -1.85156,3.93221 -0.19777,0.96949 -0.58426,1.76271 -0.85886,1.76271 -0.2746,0 -0.49928,0.33803 -0.49928,0.75118 0,0.41315 -0.60232,1.14584 -1.3385,1.6282 -0.81088,0.53131 -1.2168,1.19412 -1.02979,1.68148 0.30269,0.7888 -2.14517,4.26183 -2.64884,3.75817 -0.14103,-0.14103 -1.07799,0.8138 -2.08215,2.12184 -2.03016,2.64456 -4.03621,3.77033 -6.30578,3.53873 -0.83061,-0.0848 -3.01827,0.0425 -4.86148,0.28277 -4.06974,0.53054 -5.38564,0.174 -5.82547,-1.57841 -0.18449,-0.73508 -0.57485,-1.3365 -0.86748,-1.3365 -0.29262,0 -0.53204,-0.19918 -0.53204,-0.44263 0,-0.68064 5.25733,-6.06585 5.9218,-6.06585 0.32267,0 0.58668,-0.32827 0.58668,-0.7295 0,-0.40122 0.48813,-1.17125 1.08474,-1.71118 0.59661,-0.53992 1.08475,-1.30995 1.08475,-1.71118 0,-0.40122 0.33894,-0.72949 0.7532,-0.72949 0.43138,0 0.90535,-0.81108 1.10932,-1.89831 0.19587,-1.04407 0.58914,-1.8983 0.87392,-1.8983 0.28479,0 0.5178,-0.33622 0.5178,-0.74716 0,-0.41092 0.35361,-1.04062 0.78581,-1.39931 0.4322,-0.3587 1.07774,-1.5479 1.43453,-2.64268 0.3568,-1.09479 0.89338,-2.14918 1.19241,-2.34311 0.29904,-0.19392 0.6624,-2.81765 0.80748,-5.83051 0.14508,-3.01285 0.47521,-5.47791 0.73364,-5.47791 0.66435,0 0.60807,-45.40989 -0.0568,-45.82079 -0.28966,-0.17902 -0.68721,-1.5358 -0.88344,-3.01506 -0.19623,-1.47927 -0.53835,-2.68958 -0.76027,-2.68958 -0.22193,0 -0.5188,-1.19999 -0.65973,-2.66664 -0.14092,-1.46666 -0.64413,-3.05454 -1.11822,-3.52863 -0.47409,-0.4741 -1.01646,-1.34869 -1.20526,-1.94353 -0.18879,-0.59484 -0.61969,-1.08154 -0.95756,-1.08154 -0.43717,0 -0.42664,-0.18766 0.0366,-0.65084 0.88813,-0.88814 0.8226,-2.60339 -0.0995,-2.60339 -0.41266,0 -0.9047,0.42712 -1.09341,0.94915 -0.47461,1.31292 -1.76138,3.46802 -2.31062,3.86988 -0.25071,0.18343 -0.94397,1.29193 -1.54058,2.46333 -1.03234,2.02692 -1.08475,3.20133 -1.08475,24.30961 0,20.55979 0.0693,22.21858 0.94915,22.71069 0.52204,0.292 0.94916,1.00691 0.94916,1.58869 0,0.58179 0.24406,1.0578 0.54237,1.0578 0.31299,0 0.54237,1.70684 0.54237,4.03579 0,2.21968 -0.24407,4.18663 -0.54237,4.37099 -0.29831,0.18436 -0.54328,0.86996 -0.5444,1.52354 -0.001,0.65358 -0.48925,1.98745 -1.08475,2.96415 -0.59549,0.97669 -1.08271,2.68766 -1.08271,3.80215 0,2.35878 -0.95072,3.53642 -6.37492,7.89651 -2.01244,1.61765 -4.38483,3.71128 -5.27198,4.65252 -1.75456,1.86155 -4.24727,3.29672 -5.72595,3.29672 -0.51426,0 -1.2348,0.36123 -1.60122,0.80274 -0.36641,0.4415 -1.18952,0.76902 -1.82912,0.72782 -0.6396,-0.0412 -2.13919,0.20638 -3.33241,0.55017 -3.04729,0.878 -6.5414,0.7822 -8.50495,-0.23319 -1.8672,-0.96556 -5.86793,-4.84632 -5.86793,-5.69196 0,-0.80612 2.70185,-3.17417 4.91006,-4.30344 1.05987,-0.54201 2.21395,-1.61522 2.56465,-2.3849 0.35069,-0.7697 0.87851,-1.39944 1.17292,-1.39944 0.97964,0 3.65344,-3.03147 4.04307,-4.58391 0.21127,-0.84175 0.98127,-2.31335 1.71111,-3.27022 1.24544,-1.63286 1.327,-2.15968 1.327,-8.57183 0,-3.96965 -0.22724,-6.97249 -0.54237,-7.16726 -0.67429,-0.41673 -0.72677,-10.94067 -0.0566,-11.35484 0.26716,-0.16511 0.7946,-2.37613 1.17207,-4.91336 0.37748,-2.53724 0.86964,-4.61316 1.0937,-4.61316 0.22404,0 0.5723,-0.97627 0.7739,-2.16949 0.20159,-1.19322 0.58914,-2.16949 0.86123,-2.16949 0.92337,0 0.51407,-2.98121 -0.4959,-3.61194 -0.84772,-0.52942 -1.12829,-0.36296 -1.94531,1.15417 -1.55113,2.88026 -3.22191,3.14451 -18.26153,2.88825 -12.75648,-0.21737 -15.61286,-0.57976 -16.76866,-2.12747 -0.14916,-0.19973 -0.88136,-0.44877 -1.62712,-0.55341 -0.76499,-0.10735 -1.58909,-0.72171 -1.89091,-1.40965 -0.29424,-0.67066 -1.27051,-1.56981 -2.16949,-1.99811 -0.89898,-0.42831 -2.17346,-1.28298 -2.83218,-1.89927 -0.65871,-0.6163 -1.43813,-1.12054 -1.73205,-1.12054 -0.29391,0 -0.95349,-0.7095 -1.46574,-1.57666 -0.51224,-0.86716 -1.20872,-1.47022 -1.54772,-1.34014 -0.91445,0.35091 -8.97208,-7.65839 -8.97208,-8.91827 0,-0.5862 -0.33782,-1.19546 -0.75072,-1.3539 -0.43241,-0.16593 -1.01234,-1.79042 -1.36773,-3.83125 -0.33936,-1.94874 -0.95663,-4.22488 -1.37171,-5.05808 -0.41507,-0.83321 -1.17771,-2.49119 -1.69474,-3.68441 -0.51703,-1.19322 -1.14993,-2.53559 -1.40645,-2.98305 -0.25652,-0.44746 -0.60674,-1.17966 -0.77826,-1.62712 -2.10067,-5.4801 -6.36225,-10.18439 -10.26925,-11.33604 -1.41764,-0.41787 -3.36954,-1.45515 -4.33755,-2.30508 -0.96801,-0.84993 -2.03619,-1.54532 -2.37374,-1.54532 -0.33755,0 -1.03753,-0.21037 -1.55552,-0.46749 -0.51798,-0.25711 -2.34518,-1.15195 -4.06043,-1.98852 -1.71526,-0.83658 -3.11865,-1.72451 -3.11865,-1.97319 0,-0.24869 -0.27866,-0.45215 -0.61924,-0.45215 -0.34059,0 -1.33824,-0.75236 -2.217,-1.6719 -0.87877,-0.91954 -2.30858,-1.91969 -3.17737,-2.22255 -0.86878,-0.30286 -1.57961,-0.73619 -1.57961,-0.96296 0,-0.58757 5.33213,-3.27819 6.49653,-3.27819 0.53499,0 1.67178,-0.3646 2.52622,-0.81022 1.00281,-0.52299 3.11031,-0.8114 5.94511,-0.81355 3.61618,-0.003 4.61243,0.18818 5.64231,1.0814 0.6879,0.59661 1.47697,1.08475 1.7535,1.08475 0.27653,0 1.96718,1.4644 3.75701,3.25423 1.78983,1.78983 3.46898,3.25424 3.73145,3.25424 0.26247,0 0.76971,0.97627 1.12721,2.16949 0.35749,1.19322 0.93661,2.16949 1.28693,2.16949 0.65814,0 4.06604,3.93612 4.08135,4.71396 0.0168,0.85345 17.77604,18.0657 18.6398,18.0657 0.48234,0 0.87699,0.21235 0.87699,0.47189 0,0.25954 1.15932,0.78382 2.57627,1.16506 1.41695,0.38125 3.30848,1.22946 4.20339,1.88492 1.52161,1.11447 2.66953,1.5229 6.37288,2.26748 0.82034,0.16493 1.49153,0.51624 1.49153,0.78069 0,0.26444 0.69438,0.48081 1.54305,0.48081 0.85425,0 1.98128,0.48422 2.52474,1.08475 0.85513,0.9449 1.6526,1.08167 6.18576,1.06094 3.37737,-0.0155 5.96559,-0.3211 7.37357,-0.87076 1.19322,-0.46583 2.90169,-0.9661 3.79661,-1.11171 1.27546,-0.20753 1.84716,-0.75196 2.64525,-2.51907 1.13719,-2.51795 3.6449,-6.49627 4.27,-6.77409 0.22373,-0.0994 0.40678,-0.49847 0.40678,-0.88674 0,-0.87306 4.25951,-5.07052 5.5672,-5.48609 0.52637,-0.16728 0.81396,-0.53563 0.63909,-0.81857 -0.31329,-0.50692 2.3202,-4.052 2.95753,-3.98128 0.38947,0.0432 2.22601,-2.21772 2.22601,-2.74039 0,-0.86457 7.41167,-8.39601 8.27119,-8.40485 0.52203,-0.005 0.94915,-0.23387 0.94915,-0.50778 0,-0.27391 0.1632,-0.92331 0.36267,-1.44311 0.29851,-0.7779 0.13932,-0.88669 -0.89979,-0.61496 -0.90179,0.23582 -1.92969,-0.14903 -3.59796,-1.34709 -2.30441,-1.6549 -2.44227,-1.68078 -10.35445,-1.94349 -4.41042,-0.14644 -8.14098,-0.43676 -8.29013,-0.64516 -0.28375,-0.39647 -6.79835,-1.38436 -14.64407,-2.22067 -2.53559,-0.27028 -5.83051,-0.74777 -7.32203,-1.06108 -1.49153,-0.31331 -3.99322,-0.71332 -5.55932,-0.88893 -1.56611,-0.1756 -2.84746,-0.52985 -2.84746,-0.78721 0,-0.25736 -0.79322,-0.8368 -1.76271,-1.28764 -3.23856,-1.50601 -5.01225,-2.77529 -5.55235,-3.97333 -0.29446,-0.65319 -0.96565,-1.18762 -1.49152,-1.18762 -0.52588,0 -0.95613,-0.24407 -0.95613,-0.54237 0,-0.29831 -0.36611,-0.54238 -0.81356,-0.54238 -0.44746,0 -0.81356,-0.2156 -0.81356,-0.47911 0,-0.26351 -0.42712,-0.61965 -0.94916,-0.7914 -2.29372,-0.75467 -9.8983,-5.6676 -9.8983,-6.39478 0,-0.25867 -0.37376,-0.4703 -0.83058,-0.4703 -0.45682,0 -0.98733,-0.40847 -1.17891,-0.90772 -0.19158,-0.49924 -0.6868,-1.29246 -1.1005,-1.76271 -3.69849,-4.20403 -4.48323,-5.22964 -4.48323,-5.85936 0,-0.39852 -0.35872,-0.86225 -0.79716,-1.03049 -0.43844,-0.16825 -1.09764,-1.13686 -1.46489,-2.15247 -0.36725,-1.01561 -0.92378,-1.84569 -1.23674,-1.8446 -0.72061,0.003 -4.61699,-4.40215 -4.62833,-5.23208 -0.005,-0.34097 -0.39487,-0.76821 -0.86714,-0.94944 -0.47226,-0.18122 -0.75587,-0.63446 -0.63024,-1.00718 0.12562,-0.37272 -0.49001,-1.11688 -1.36808,-1.65367 -0.87807,-0.53679 -1.8683,-1.69612 -2.20052,-2.57627 -0.33222,-0.88016 -0.78175,-1.60028 -0.99896,-1.60028 -0.34174,0 -3.16387,-5.11954 -3.16387,-5.73948 0,-0.12464 0.48813,-0.22662 1.08474,-0.22662 0.60264,0 1.08475,-0.36159 1.08475,-0.81356 0,-0.53506 -0.53535,-0.81356 -1.56386,-0.81356 -1.69074,0 -2.2113,-0.9579 -2.22535,-4.09492 -0.004,-0.90983 -0.23125,-1.8861 -0.50485,-2.16949 -0.2736,-0.28339 -0.76246,-3.18852 -1.08635,-6.45583 -0.32389,-3.26732 -0.83224,-6.18393 -1.12966,-6.48136 -0.73565,-0.73564 -0.73409,-26.35772 0.002,-26.35772 0.34471,0 0.54238,-4.2348 0.54238,-11.61964 0,-10.78518 0.61516,-17.12613 1.66147,-17.12613 0.21473,0 0.54904,-0.63196 0.74289,-1.40435 0.19386,-0.7724 1.44066,-2.50816 2.77067,-3.85725 1.33,-1.34909 2.41819,-2.7773 2.41819,-3.1738 0,-0.3965 0.23753,-0.86772 0.52786,-1.04715 0.29032,-0.17943 0.91153,-1.13477 1.38047,-2.12298 0.46894,-0.98822 1.45174,-2.1174 2.184,-2.50929 0.73227,-0.3919 1.3314,-1.15944 1.3314,-1.70564 0,-0.5462 0.24406,-0.9931 0.54237,-0.9931 0.2983,0 0.54237,-0.60454 0.54237,-1.34343 0,-0.81601 0.50622,-1.67511 1.28943,-2.18829 2.20766,-1.44652 3.16892,-4.97788 2.83603,-10.41876 -0.6304,-10.30338 -1.16859,-15.20902 -1.74821,-15.93491 -0.33319,-0.41727 -0.7762,-2.09646 -0.98447,-3.73154 -0.20827,-1.63508 -0.6589,-3.14606 -1.0014,-3.35774 -0.85913,-0.53097 -0.90562,-15.514868 -0.0498,-16.059268 0.33701,-0.214383 0.78809,-1.91521 1.00241,-3.779616 0.21432,-1.864407 0.60977,-3.389831 0.87879,-3.389831 0.26901,0 0.48912,-0.878368 0.48912,-1.95193 0,-1.073561 0.3318,-2.721019 0.73733,-3.661017 1.32551,-3.072399 1.95839,-4.407874 2.48066,-5.234511 0.28271,-0.447457 0.64937,-1.46139 0.8148,-2.253182 0.23628,-1.130804 0.84567,-1.625278 2.84079,-2.305085 2.80483,-0.955701 9.93998,-1.187621 9.93998,-0.323089 0,0.298306 0.91525,0.550655 2.03389,0.560777 1.11865,0.01012 3.01017,0.489976 4.20339,1.066342 1.19322,0.576367 2.46644,1.056221 2.82938,1.066342 0.36294,0.01012 1.51412,0.872641 2.55819,1.916709 1.04407,1.044068 2.22652,1.898305 2.62768,1.898305 0.40115,0 1.26962,0.503324 1.92993,1.118497 0.66031,0.615173 1.69444,1.213609 2.29807,1.329857 0.60363,0.116249 1.87889,0.836943 2.83391,1.601544 2.46036,1.969795 2.64659,2.097234 4.35073,2.977374 0.84127,0.434492 2.06161,1.31835 2.71187,1.96413 0.65025,0.645781 2.49346,1.45343 4.09602,1.794777 1.60255,0.341347 3.67713,1.017763 4.61017,1.503146 0.93303,0.485383 2.16533,1.119895 2.73843,1.410026 2.08938,1.057737 6.03566,3.291799 7.07868,4.007364 0.5884,0.40368 1.59581,0.733963 2.23867,0.733963 0.64286,0 1.46707,0.359337 1.83156,0.798525 0.56015,0.674939 0.3186,0.853552 -1.56071,1.154066 -1.35002,0.215877 -2.22342,0.647892 -2.22342,1.09978 0,0.87974 1.20249,0.945851 3.77652,0.207627 1.6702,-0.479005 2.03372,-0.380774 3.38625,0.915032 0.83335,0.798405 1.51519,1.745971 1.51519,2.105703 0,0.863153 1.49791,1.417969 1.932,0.715601 0.66326,-1.073173 -0.29939,-2.942519 -2.012,-3.907081 l -1.73745,-0.978543 1.75175,-1.065301 c 1.24849,-0.759251 3.49624,-1.224033 7.82398,-1.617815 11.02968,-1.003591 14.72236,-1.479333 17.19087,-2.214762 3.50436,-1.044032 25.63499,-0.931261 26.92115,0.137182 0.72073,0.598716 4.53034,0.787293 18.72067,0.926682 9.7987,0.09625 17.81581,0.379883 17.81581,0.630293 0,0.25041 0.97499,0.620015 2.16665,0.821345 1.19166,0.201328 2.26555,0.527866 2.38643,0.725639 0.12089,0.197773 -1.09817,1.796756 -2.70902,3.553296 -1.61084,1.75654 -2.9288,3.526032 -2.9288,3.932203 0,0.406172 -0.36611,0.738494 -0.81356,0.738494 -0.98047,0 -1.09596,1.977839 -0.1356,2.322191 1.05918,0.379782 2.57627,-0.630041 2.57627,-1.71484 0,-1.07292 1.60706,-2.776842 2.61898,-2.776842 0.59951,0 0.87564,-0.75515 0.6733,-1.841288 C 301.46594,92.476989 304.34808,89.6 305.18622,89.6 c 0.39165,0 0.71209,-0.244068 0.71209,-0.542373 0,-0.731606 1.41192,-0.685954 2.64737,0.0856 0.55305,0.345383 1.43552,0.462974 1.96104,0.261312 0.7657,-0.293828 0.89796,-0.795623 0.66583,-2.526275 -0.18035,-1.344574 -0.0722,-2.159618 0.28659,-2.159618 0.61901,0 6.52287,-4.340893 6.82334,-5.016949 0.0994,-0.223729 0.53478,-0.40678 0.96744,-0.40678 0.43265,0 1.534,-0.764535 2.44744,-1.698968 1.56407,-1.600025 6.01498,-3.724761 7.80264,-3.724761 0.88348,0 4.24571,-1.583395 8.98693,-4.232269 1.66612,-0.930843 4.10679,-1.857108 5.42373,-2.058368 1.31694,-0.20126 2.63849,-0.548497 2.9368,-0.771639 0.2983,-0.223142 4.12617,-0.509131 8.50637,-0.635532 9.22561,-0.266228 8.78928,-0.522753 9.39422,5.522947 0.19373,1.93603 0.54687,3.766539 0.78477,4.067797 0.2379,0.301258 0.582,7.137573 0.76467,15.19181 0.18267,8.054237 0.48428,17.938986 0.67024,21.966096 0.31088,6.73197 0.26914,7.23462 -0.51789,6.23729 -0.47081,-0.59661 -0.86378,-0.86878 -0.87327,-0.60482 -0.009,0.26396 -0.49711,-0.13013 -1.08361,-0.87574 -1.05702,-1.34378 -4.14604,-2.97935 -4.65871,-2.46668 -0.58329,0.58329 0.45558,1.97005 1.71209,2.28542 0.79805,0.2003 1.68442,1.07289 2.21055,2.17618 0.48306,1.01299 1.33029,1.96001 1.88274,2.10447 0.57418,0.15015 1.00444,0.74907 1.00444,1.39819 0,0.64777 0.34945,1.13552 0.81356,1.13552 0.44745,0 0.81356,-0.29008 0.81356,-0.64464 0,-0.35455 0.49764,-0.11049 1.10587,0.54237 0.60823,0.65286 1.34043,1.18702 1.62712,1.18702 0.28668,0 0.52124,0.28076 0.52124,0.62391 0,0.71835 2.75533,6.56273 3.28568,6.96931 0.19456,0.14915 0.64566,1.16692 1.00245,2.2617 0.3568,1.09478 1.00234,2.28399 1.43453,2.64268 0.4322,0.35869 0.78582,0.9986 0.78582,1.422 0,0.4234 0.47755,1.28241 1.06122,1.90891 0.58367,0.62649 1.55232,2.18387 2.15256,3.46082 0.60024,1.27696 1.52609,2.46201 2.05743,2.63345 0.89441,0.28859 2.54233,2.53883 3.5072,4.78908 0.22383,0.52204 0.67331,0.94916 0.99883,0.94916 0.32553,0 0.42876,0.2639 0.22942,0.58644 -0.19934,0.32255 0.27221,1.24889 1.0479,2.05854 0.976,1.01871 1.50862,2.29968 1.72944,4.15931 0.17551,1.47798 0.51799,3.17537 0.76108,3.77198 0.60949,1.49592 1.64136,7.86021 1.64136,10.12355 0,1.02459 0.26054,2.12343 0.57897,2.44186 0.86946,0.86946 0.45252,19.27334 -0.44338,19.57095 -0.37288,0.12387 -0.67947,0.87607 -0.6813,1.67155 -0.002,0.79548 -0.36795,2.14541 -0.81356,2.99985 -0.44562,0.85444 -0.81022,2.15992 -0.81022,2.90108 0,0.74116 -0.33714,2.11665 -0.7492,3.05665 -0.76275,1.74001 -1.96267,10.01502 -1.96267,13.53516 0,1.06723 -0.21347,2.07235 -0.47438,2.2336 -0.26091,0.16125 -0.58794,1.66252 -0.72672,3.33616 -0.1388,1.67364 -0.47552,3.20357 -0.74828,3.39985 -0.27275,0.19627 -0.96164,1.76025 -1.53085,3.4755 -0.56921,1.71526 -1.20018,3.11865 -1.40216,3.11865 -0.54372,0 -1.50564,2.32651 -1.94221,4.69745 -0.21087,1.14521 -0.83618,2.66428 -1.38957,3.37569 -0.55339,0.71141 -1.00617,1.59339 -1.00617,1.95994 0,0.36655 -0.57326,1.24889 -1.27393,1.96075 -0.70066,0.71187 -1.4229,1.90447 -1.60499,2.65023 -0.18208,0.74577 -1.50034,2.60658 -2.92946,4.13514 -4.77235,5.10442 -6.12382,6.67996 -6.12382,7.13913 0,0.60234 -11.79128,12.59014 -12.38374,12.59014 -0.2525,0 -0.7371,0.61017 -1.0769,1.35593 -0.40908,0.89784 -1.05738,1.35593 -1.91895,1.35593 -0.71563,0 -1.60275,0.36342 -1.97138,0.80759 -0.36864,0.44417 -0.89215,0.67045 -1.16336,0.50282 -0.27122,-0.16762 -1.61668,0.3232 -2.98991,1.09072 -1.37324,0.76752 -3.21037,1.39548 -4.08253,1.39548 -0.87216,0 -2.24481,0.32537 -3.05033,0.72305 -0.80553,0.39768 -2.8557,1.04388 -4.55594,1.43601 -1.70024,0.39213 -3.218,1.04303 -3.37281,1.44644 -0.1548,0.40342 -0.79469,0.73349 -1.42197,0.73349 -0.62728,0 -1.4766,0.33609 -1.88737,0.74687 -0.48047,0.48046 -2.79627,0.88655 -6.49239,1.13848 -5.33616,0.36371 -6.02405,0.54595 -9.65507,2.55782 -3.85673,2.13694 -3.9975,2.16888 -10.41803,2.36407 -3.57966,0.10883 -6.69152,0.20816 -6.91525,0.22074 -0.81279,0.0457 -0.38185,1.53261 0.54237,1.87141 2.09027,0.76625 3.9322,2.04653 3.9322,2.73319 0,0.39927 0.36611,0.86642 0.81356,1.03813 0.44746,0.17171 0.81356,0.64813 0.81356,1.05871 0,0.41059 0.48814,1.18828 1.08475,1.7282 0.59661,0.53993 1.08474,1.30996 1.08474,1.71119 0,0.40122 0.21691,0.72949 0.48202,0.72949 0.2651,0 0.63598,0.82073 0.82417,1.82385 0.18818,1.00311 0.82551,2.26128 1.41629,2.79592 0.59077,0.53465 1.07414,1.27425 1.07414,1.64355 0,0.36931 0.3661,0.81196 0.81355,0.98367 0.44746,0.1717 0.81356,0.68595 0.81356,1.14277 0,0.45682 0.22468,0.83058 0.49928,0.83058 0.2746,0 0.66787,0.79322 0.87393,1.76271 0.20605,0.96949 0.6875,2.12882 1.06989,2.57627 0.38238,0.44746 0.85689,2.64407 1.05445,4.88136 0.19756,2.23729 0.56581,4.55593 0.81833,5.15254 0.65823,1.55517 1.66938,31.03851 1.65903,48.37477 -0.005,8.32031 0.20701,14.88103 0.48638,15.05369 0.27234,0.16832 0.6599,1.28103 0.86123,2.47269 0.20133,1.19166 0.58866,2.16665 0.86075,2.16665 0.27208,0 0.4947,0.32828 0.4947,0.7295 0,0.40122 0.48814,1.17125 1.08475,1.71118 0.59661,0.53992 1.08474,1.43199 1.08474,1.98236 0,0.8431 0.71127,1.34211 1.23307,0.8651 0.0816,-0.0746 0.73777,0.41355 1.4582,1.08474 0.72044,0.67119 1.54861,1.22034 1.84038,1.22034 0.29178,0 0.36934,0.16116 0.17237,0.35813 -0.19698,0.19697 0.12113,0.69382 0.7069,1.10412 0.58578,0.41029 1.48631,1.65252 2.00119,2.76051 0.51488,1.10799 1.2544,2.20971 1.64338,2.44826 0.38897,0.23855 0.70722,0.86092 0.70722,1.38305 0,0.52213 0.28882,1.23813 0.64181,1.59113 0.353,0.35299 0.51554,0.76808 0.36121,0.92241 -0.50341,0.50341 -4.46329,0.38951 -7.44993,-0.21428 -1.60681,-0.32484 -4.59664,-0.59062 -6.64406,-0.59062 -2.04742,0 -3.72259,-0.2169 -3.72259,-0.48201 0,-0.26511 -0.89945,-0.65075 -1.99878,-0.85699 -3.34023,-0.62663 -8.65584,-3.50129 -9.36913,-5.06678 -0.35379,-0.7765 -1.11717,-1.74375 -1.6964,-2.14946 -0.57922,-0.4057 -1.41058,-1.59312 -1.84745,-2.63871 -0.43687,-1.04559 -1.04523,-1.746 -1.35189,-1.55647 -0.30666,0.18953 -0.72093,-0.098 -0.92059,-0.63893 -0.19966,-0.54094 -0.99115,-1.81925 -1.75888,-2.84069 l -1.39586,-1.85716 0,-16.6922 c 0,-12.63072 0.16496,-16.85712 0.67797,-17.36996 0.83195,-0.8317 0.95651,-10.22352 0.13559,-10.22352 -0.2983,0 -0.54237,-0.32828 -0.54237,-0.7295 0,-0.40122 -0.48814,-1.17125 -1.08475,-1.71118 -0.59661,-0.53992 -1.08474,-1.26114 -1.08474,-1.6027 0,-0.34156 -0.29925,-0.92028 -0.665,-1.28602 -1.14162,-1.14162 -2.16139,-6.60045 -2.55065,-13.65365 -0.20579,-3.72881 -0.56329,-7.29857 -0.79444,-7.9328 -0.46561,-1.27755 -2.82148,-2.77236 -3.42234,-2.17149 -0.21077,0.21077 -0.48081,2.02131 -0.60007,4.02341 -0.11927,2.00211 -0.43533,3.87207 -0.70235,4.15546 -0.64757,0.68726 -0.62475,8.61923 0.0267,9.27457 0.2879,0.28963 0.67964,9.18406 0.89462,20.31187 0.37792,19.56278 0.36867,19.82358 -0.78337,22.08008 -0.6412,1.25592 -1.16949,2.72032 -1.17398,3.25424 -0.004,0.53392 -0.35988,1.94703 -0.78975,3.14025 -1.08112,3.00091 -1.10332,12.17602 -0.0329,13.59125 0.43797,0.57905 0.80407,1.45383 0.81356,1.94394 0.009,0.49013 0.38372,1.03176 0.83161,1.20363 0.4479,0.17188 1.22531,1.17426 1.72758,2.22752 0.50226,1.05326 1.14232,1.91502 1.42234,1.91502 0.57121,0 4.63478,4.47685 5.63032,6.20294 0.35499,0.6155 1.02106,1.92988 1.48016,2.92084 0.45909,0.99096 1.0839,1.64774 1.38845,1.45951 0.34886,-0.21561 0.55374,0.67296 0.55374,2.40165 0,1.50913 -0.18305,2.71134 -0.40678,2.67157 -0.22373,-0.0397 -1.99322,-0.50399 -3.9322,-1.03161 l -2e-5,0 z M 256,284.93282 c 1.64068,-0.29797 5.60678,-0.55959 8.81356,-0.58136 3.49903,-0.0238 5.83051,-0.25648 5.83051,-0.58197 0,-0.2983 1.40339,-0.5466 3.11864,-0.55177 4.70484,-0.0142 13.31352,-1.01937 13.91944,-1.6253 0.29414,-0.29414 1.27921,-0.53492 2.18904,-0.53506 0.90983,-1.6e-4 2.93821,-0.48829 4.50751,-1.08475 1.5693,-0.59646 4.13201,-1.08803 5.69492,-1.09237 1.5629,-0.004 3.93994,-0.39263 5.28231,-0.86286 1.34238,-0.47023 3.53899,-1.06178 4.88136,-1.31455 5.03679,-0.94843 7.8659,-1.77532 8.39904,-2.45487 0.35611,-0.4539 2.27192,-0.76352 5.43239,-0.87796 4.20443,-0.15224 5.05158,-0.34621 6.10169,-1.39712 0.67069,-0.67119 1.45365,-1.22034 1.73993,-1.22034 0.28629,0 1.42379,-0.97627 2.52781,-2.16949 1.104,-1.19322 2.47906,-2.16949 3.05568,-2.16949 0.59227,0 1.17182,-0.47195 1.33207,-1.08475 0.15602,-0.59661 0.52768,-1.08474 0.82591,-1.08474 0.29824,0 1.4617,-0.97627 2.58548,-2.16949 1.12377,-1.19322 2.39847,-2.1695 2.83266,-2.1695 0.43419,0 1.25582,-0.97347 1.82584,-2.16327 0.57003,-1.18979 1.3415,-2.16606 1.71438,-2.16949 0.37288,-0.003 0.67797,-0.23856 0.67797,-0.52254 0,-0.28397 1.0983,-1.27197 2.44067,-2.19554 1.34238,-0.92358 2.44068,-2.04391 2.44068,-2.48963 0,-0.89319 0.11825,-1.0655 3.09142,-4.50481 l 2.06112,-2.38426 0.16821,-14.26301 c 0.13907,-11.7924 0.0309,-14.47971 -0.62473,-15.51404 -0.43611,-0.68807 -0.96608,-2.10527 -1.17772,-3.14934 -0.21163,-1.04407 -0.69742,-2.2644 -1.07953,-2.71186 -0.38211,-0.44746 -0.87242,-2.14169 -1.08957,-3.76495 -0.21716,-1.62326 -0.7316,-3.28816 -1.1432,-3.69976 -0.41161,-0.4116 -0.74837,-1.3411 -0.74837,-2.06556 0,-0.72445 -0.23641,-1.31719 -0.52535,-1.31719 -0.28894,0 -0.39434,-0.34141 -0.23421,-0.7587 0.16012,-0.41728 0.0304,-0.91982 -0.28821,-1.11675 C 352.26071,194.91745 352,193.92502 352,192.90898 c 0,-1.01604 -0.34077,-2.89316 -0.75726,-4.17138 -0.41648,-1.27822 -0.90436,-3.17896 -1.08417,-4.22386 -0.38193,-2.21957 -3.98271,-6.98551 -5.30627,-7.02332 -0.50073,-0.0143 -1.23293,-0.33175 -1.62712,-0.70542 -0.99604,-0.94421 -6.46162,-3.1172 -7.84049,-3.1172 -0.62519,0 -1.71878,-0.45477 -2.43019,-1.01061 -0.73433,-0.57372 -2.70025,-1.17308 -4.54772,-1.38646 -1.78983,-0.20673 -4.23051,-0.50611 -5.42373,-0.66529 -3.70673,-0.4945 -62.88115,-0.11792 -63.43051,0.40366 -0.28339,0.26906 -1.14433,0.4892 -1.91321,0.4892 -0.76889,0 -1.90034,0.35188 -2.51435,0.78195 -0.83037,0.58161 -3.88462,0.87933 -11.92132,1.16207 -10.24797,0.36053 -11.00044,0.31787 -14.59753,-0.82763 -2.08591,-0.66426 -4.21638,-1.43126 -4.73436,-1.70444 -0.51799,-0.27318 -1.56923,-0.49669 -2.3361,-0.49669 -1.74966,0 -6.17782,-0.99163 -7.42662,-1.6631 -0.51798,-0.27851 -5.95633,-0.50639 -12.08521,-0.50639 -8.6783,0 -11.57416,0.17997 -13.09055,0.81356 -1.07092,0.44745 -3.21736,0.81356 -4.76988,0.81356 -2.81589,0 -2.83256,0.0103 -6.84902,4.22458 -4.57546,4.80084 -7.00931,7.64655 -7.00931,8.19545 0,0.48805 -1.63342,2.64616 -2.84745,3.76212 -0.52204,0.47987 -0.94916,1.18434 -0.94916,1.5655 0,0.38117 -0.3661,0.69302 -0.81355,0.69302 -0.44746,0 -0.81356,0.36733 -0.81356,0.81627 0,0.44895 -1.58644,2.6353 -3.52543,4.85858 -1.93898,2.22326 -3.52542,4.19649 -3.52542,4.38495 0,0.18845 -1.21031,1.70057 -2.68958,3.36027 -1.47926,1.6597 -3.07615,3.77339 -3.54865,4.69709 -0.47249,0.9237 -1.49317,2.76574 -2.26817,4.09343 -1.2256,2.09961 -1.44123,3.19438 -1.65579,8.40678 -0.23304,5.66136 -0.16883,6.13688 1.16114,8.59777 0.77431,1.43274 1.40783,3.20223 1.40783,3.93221 0,0.72998 0.23466,1.32723 0.52147,1.32723 0.2868,0 0.77888,0.95597 1.0935,2.12437 0.31462,1.1684 0.93269,2.81586 1.37349,3.66102 0.44081,0.84515 0.80297,1.84658 0.80481,2.22539 0.002,0.37881 0.62102,1.66721 1.37596,2.86312 0.75495,1.19591 1.51454,2.88393 1.68798,3.75116 0.17345,0.86723 0.63106,1.69793 1.01691,1.84599 0.38586,0.14807 0.866,1.01791 1.06698,1.93298 0.20098,0.91507 0.70717,1.66377 1.12487,1.66377 0.41769,0 1.23445,0.9311 1.81502,2.06911 0.58057,1.13801 1.80587,2.8723 2.72289,3.85397 0.91702,0.98167 1.6673,2.11888 1.6673,2.52713 0,0.40825 0.67119,1.09145 1.49153,1.51823 0.82034,0.42677 2.08322,1.40931 2.80641,2.18342 0.72318,0.7741 1.85262,1.40746 2.50986,1.40746 0.65723,0 1.49881,0.3661 1.87017,0.81356 0.37136,0.44746 1.19446,0.82132 1.82912,0.83081 0.63466,0.009 1.6277,0.37559 2.20675,0.81355 0.57905,0.43798 1.71803,0.79632 2.53107,0.79632 0.81304,0 1.55961,0.18305 1.65905,0.40678 0.3521,0.79221 3.45776,2.6789 5.06215,3.07523 0.89491,0.22108 2.60339,0.51766 3.79661,0.65907 1.91164,0.22655 12.80361,3.38576 15.72881,4.56214 0.59661,0.23993 2.9738,0.58641 5.28264,0.76998 2.30884,0.18356 5.20732,0.68989 6.44107,1.12519 1.23375,0.43529 2.86446,0.79144 3.62381,0.79144 0.75934,0 1.77491,0.35682 2.25681,0.79294 0.4904,0.4438 2.89731,1.02702 5.46644,1.32458 9.77468,1.1321 14.39488,1.80964 15.4377,2.26388 1.19909,0.5223 4.92153,0.32378 9.49153,-0.50621 l 0,0 z"
     id="path3155"
     inkscape:connector-curvature="0" />
  <path
     style="fill:#ffb380;fill-opacity:1;stroke:#000000;stroke-width:0.27118643999999997"
     d="m 245.87181,284.85516 c -0.82034,-0.20036 -4.35932,-0.73648 -7.86441,-1.19137 -8.48914,-1.10174 -10.85491,-1.54076 -12.54633,-2.32823 -0.78087,-0.36356 -1.64328,-0.6622 -1.91645,-0.66366 -0.27317,-10e-4 -1.98165,-0.35766 -3.79661,-0.79157 -1.81496,-0.4339 -4.99109,-0.98686 -7.05806,-1.2288 -2.75421,-0.32237 -4.60151,-0.71831 -6.91526,-1.48217 -4.926,-1.62628 -10.69663,-3.19833 -14.48286,-3.94545 -3.7451,-0.73901 -4.71361,-1.13231 -6.97787,-2.83364 -0.92714,-0.69664 -1.76753,-1.11085 -2.2538,-1.11085 -0.42648,0 -1.60954,-0.3661 -2.62903,-0.81356 -1.01949,-0.44746 -2.07941,-0.81356 -2.35538,-0.81356 -0.27597,0 -0.93502,-0.2944 -1.46456,-0.65423 -0.52954,-0.35984 -1.46439,-0.78931 -2.07745,-0.95439 -0.61306,-0.16508 -1.64203,-0.74224 -2.2866,-1.28258 -0.64457,-0.54034 -1.81077,-1.45573 -2.59156,-2.03419 -0.78079,-0.57846 -1.62258,-1.44423 -1.87064,-1.92392 -0.24806,-0.4797 -1.08072,-1.66704 -1.85036,-2.63855 -0.76964,-0.97151 -1.91314,-2.57153 -2.54111,-3.55562 -0.62797,-0.98408 -1.42061,-1.91629 -1.76142,-2.07157 -0.38039,-0.17332 -0.76989,-0.73756 -1.00874,-1.46129 -0.214,-0.64843 -0.70868,-1.54673 -1.0993,-1.99623 -0.39061,-0.44949 -0.86376,-1.3054 -1.05145,-1.90201 -0.18769,-0.59661 -0.8704,-2.12203 -1.51714,-3.38983 -1.02248,-2.00433 -2.32633,-5.18554 -4.02867,-9.82933 -0.25948,-0.70783 -0.62082,-1.37902 -0.80298,-1.49153 -0.18216,-0.11251 -0.47675,-0.85193 -0.65464,-1.64315 -0.1779,-0.79123 -0.76759,-2.37767 -1.31042,-3.52543 -1.19609,-2.52896 -1.40436,-4.79796 -0.95279,-10.38004 0.29129,-3.60076 0.3091,-3.66835 1.69498,-6.43367 1.81081,-3.61319 2.92167,-5.30496 5.55474,-8.45956 1.1827,-1.41695 2.65257,-3.24746 3.26639,-4.06779 0.61382,-0.82034 1.99023,-2.52882 3.0587,-3.79662 1.06846,-1.26779 2.38029,-3.00339 2.91518,-3.85689 0.53489,-0.85349 1.1951,-1.62245 1.46712,-1.70879 0.27203,-0.0863 0.57416,-0.40766 0.67141,-0.71406 0.0972,-0.3064 0.83897,-1.33763 1.64827,-2.29164 0.80931,-0.954 1.84805,-2.37503 2.30832,-3.15785 1.31106,-2.22982 9.4007,-11.00929 10.78734,-11.70722 0.38512,-0.19384 1.70014,-0.4261 2.92227,-0.51613 1.22213,-0.09 3.23569,-0.44154 4.47458,-0.78115 2.16871,-0.59448 2.65612,-0.61753 13.09998,-0.61929 l 10.84746,-0.002 2.23448,0.73992 c 1.22897,0.40695 3.36456,0.87787 4.74577,1.04649 1.50723,0.184 3.70394,0.72057 5.49432,1.34204 6.00814,2.08553 5.649,2.02726 12.20339,1.97998 6.47342,-0.0467 14.88843,-0.49856 16.40678,-0.88099 0.52204,-0.13149 1.49831,-0.42505 2.16949,-0.65236 0.67119,-0.22731 1.83051,-0.56037 2.57628,-0.74014 1.94715,-0.46937 17.6145,-0.76362 41.76437,-0.78439 16.6686,-0.0143 21.28596,0.0601 24.13559,0.38926 4.7568,0.5494 6.23731,0.87708 8.02002,1.77508 0.83227,0.41923 2.29668,0.96385 3.25424,1.21027 2.35847,0.60693 5.01114,1.66466 6.48679,2.58654 0.67119,0.41931 1.56672,0.84798 1.99006,0.95259 0.94723,0.23407 2.56912,1.88913 3.96932,4.0505 1.21397,1.8739 2.49768,6.21551 3.11936,10.54991 0.21176,1.47643 0.5133,2.8127 0.67009,2.96949 0.15679,0.15679 0.28507,0.61182 0.28507,1.01119 0,0.39936 0.18305,0.87803 0.40678,1.06371 0.22373,0.18568 0.40678,0.65922 0.40678,1.05231 0,0.3931 0.29183,1.26292 0.64852,1.93295 0.35668,0.67003 0.90846,2.41807 1.22619,3.88452 0.31772,1.46646 0.80237,3.11389 1.07702,3.66097 0.27463,0.54707 0.71118,1.66586 0.9701,2.4862 0.25892,0.82034 0.76379,2.24454 1.12192,3.1649 l 0.65117,1.67337 0,13.98838 0,13.98838 -2.23729,2.60088 c -2.39965,2.78963 -2.89058,3.50555 -2.90565,4.23729 -0.005,0.25672 -0.98766,1.27593 -2.18306,2.26491 -1.19541,0.98897 -2.32422,2.00731 -2.50848,2.26296 -0.18426,0.25565 -0.54638,0.54363 -0.80472,0.63997 -0.25833,0.0963 -1.01684,1.02875 -1.68557,2.07204 -0.73318,1.14382 -1.55861,2.07413 -2.07916,2.34332 -0.47481,0.24553 -1.67749,1.21111 -2.67264,2.14574 -0.99514,0.93463 -2.07401,1.84097 -2.39748,2.01409 -0.32348,0.17312 -0.77269,0.67164 -0.99824,1.10783 -0.24326,0.4704 -0.87882,1.00344 -1.56213,1.31015 -0.63361,0.28441 -1.94525,1.24707 -2.91474,2.13926 -0.96949,0.89218 -2.25084,1.94531 -2.84745,2.34029 -0.59662,0.39497 -1.40478,0.97555 -1.79593,1.29017 -0.60521,0.48679 -1.38533,0.62845 -5.23543,0.95072 -4.05585,0.33948 -4.7008,0.46383 -6.22946,1.20109 -0.93787,0.45232 -3.15819,1.13413 -4.93406,1.51512 -1.77587,0.381 -4.51021,1.03648 -6.07631,1.45664 -3.75944,1.00858 -3.75869,1.00843 -7.05085,1.36031 -1.5661,0.1674 -4.09021,0.66422 -5.60914,1.10405 -1.51892,0.43983 -3.34943,0.8717 -4.06779,0.95971 -0.71837,0.088 -1.91629,0.37737 -2.66205,0.64303 -1.57633,0.56153 -7.28767,1.27579 -12.80934,1.60194 -2.36799,0.13987 -4.01792,0.35892 -4.26824,0.56666 -0.2724,0.22608 -2.18945,0.41533 -5.76693,0.56932 -5.80706,0.24995 -7.26255,0.37382 -11.18939,0.95225 -3.11845,0.45936 -5.59782,0.44578 -7.59322,-0.0416 l 0,0 z"
     id="path3159"
     inkscape:connector-curvature="0" />
  <path
     style="fill:#ffb380;fill-opacity:1;stroke:#000000;stroke-width:0.27118644"
     d="m 247.47633,284.89829 c -0.0622,-0.0605 -4.38151,-0.7435 -9.59858,-1.51785 -7.01365,-1.04101 -10.22918,-1.64071 -12.33898,-2.30124 -3.26238,-1.02138 -6.74238,-1.7585 -12.75171,-2.70105 -2.78472,-0.43677 -6.03392,-1.20391 -9.62712,-2.27295 -2.98305,-0.88752 -7.55932,-2.12456 -10.16949,-2.74898 -5.22088,-1.24896 -6.2793,-1.63877 -8.38802,-3.08932 -0.78362,-0.53903 -1.93214,-1.11395 -2.55227,-1.27759 -4.46859,-1.1792 -9.18646,-3.36702 -12.02339,-5.57562 -1.90863,-1.48589 -2.6741,-2.36545 -5.48926,-6.30737 -1.79925,-2.51939 -3.45865,-4.65257 -3.68756,-4.74041 -0.22891,-0.0878 -0.65872,-0.72548 -0.95513,-1.41697 -0.2964,-0.69149 -0.78811,-1.6072 -1.09267,-2.03492 -0.76628,-1.07615 -3.54048,-7.21089 -5.32261,-11.77019 -0.81621,-2.08814 -1.70298,-4.16272 -1.97061,-4.61017 -0.26763,-0.44746 -0.63638,-1.3017 -0.81944,-1.89831 -0.18306,-0.59661 -0.75028,-2.14532 -1.26048,-3.44157 -1.14348,-2.90524 -1.36088,-5.23835 -0.94274,-10.11775 0.28532,-3.3296 0.36945,-3.66526 1.5144,-6.04279 1.73696,-3.60685 3.15348,-5.68316 7.97396,-11.68807 2.34886,-2.926 5.05052,-6.35728 6.00368,-7.62507 0.95317,-1.2678 2.04371,-2.61518 2.42344,-2.99419 0.37972,-0.379 2.15481,-2.68262 3.94464,-5.11915 2.22597,-3.03026 4.53956,-5.74921 7.32203,-8.6049 l 4.0678,-4.17485 2.90757,-0.39321 c 1.59916,-0.21626 3.67374,-0.5678 4.61017,-0.78118 1.23028,-0.28035 4.67415,-0.43881 12.41446,-0.5712 10.44144,-0.17859 10.75286,-0.1688 12.33577,0.38789 0.89315,0.3141 3.2118,0.87945 5.15255,1.25633 1.94074,0.37688 5.2371,1.25819 7.32524,1.95849 l 3.79661,1.27326 9.35593,-0.033 c 10.25133,-0.0361 13.33671,-0.27964 16.81356,-1.32697 3.60755,-1.0867 8.65725,-1.2556 39.05085,-1.30614 25.65537,-0.0427 27.75572,-0.0113 30.91525,0.46219 1.86441,0.27938 4.18305,0.80888 5.15254,1.17668 0.9695,0.36779 3.32255,1.20774 5.22901,1.86655 4.74148,1.6385 8.00865,3.32141 9.55059,4.91948 2.32724,2.41197 3.12612,4.60132 5.32022,14.58018 0.32795,1.49152 0.68799,2.8339 0.8001,2.98305 0.19801,0.26346 1.70674,4.81809 3.05425,9.22034 0.36524,1.19322 1.22666,3.68767 1.91428,5.54321 l 1.2502,3.37373 -0.008,13.84661 -0.008,13.84662 -2.17576,2.57627 c -1.19667,1.41695 -2.46453,3.13221 -2.81747,3.8117 -0.41501,0.79901 -1.63791,2.11256 -3.46174,3.7184 -1.55103,1.36563 -3.23896,3.10383 -3.75096,3.86266 -0.512,0.75884 -2.02662,2.2583 -3.36583,3.33213 -1.33921,1.07384 -3.16275,2.6646 -4.05231,3.53504 -0.88956,0.87043 -2.15318,1.95124 -2.80805,2.40181 -0.65488,0.45056 -2.45278,1.83447 -3.99535,3.07536 -1.54257,1.24089 -3.03619,2.38006 -3.31917,2.5315 -0.28297,0.15144 -2.45813,0.48187 -4.8337,0.73429 -3.29145,0.34974 -4.83543,0.64883 -6.4887,1.25698 -3.11245,1.1449 -13.40987,3.66172 -17.44351,4.26341 -1.89082,0.28205 -5.8175,1.08085 -8.72598,1.77512 -6.59969,1.57538 -6.96271,1.63436 -14.23729,2.31316 -3.28135,0.30619 -6.39322,0.67079 -6.91525,0.81023 -0.52203,0.13945 -3.81695,0.44381 -7.32203,0.67637 -3.50509,0.23256 -7.71526,0.5991 -9.35594,0.81454 -2.88345,0.37861 -5.89172,0.52568 -6.12429,0.29939 l 2e-5,0 z"
     id="path3161"
     inkscape:connector-curvature="0" />
  <path
     sodipodi:type="arc"
     style="fill:#ffffff;fill-opacity:1;stroke:#ffffff"
     id="path3163"
     sodipodi:cx="228.95879"
     sodipodi:cy="222.44577"
     sodipodi:rx="18.792261"
     sodipodi:ry="24.16148"
     d="m 247.75105,222.44577 a 18.792261,24.16148 0 1 1 -37.58453,0 18.792261,24.16148 0 1 1 37.58453,0 z"
     transform="matrix(1.1961767,0,0,1.40655,-68.694336,-96.571599)" />
  <path
     sodipodi:type="arc"
     style="fill:#ffffff;fill-opacity:1;stroke:#ffffff"
     id="path3163-1"
     sodipodi:cx="228.95879"
     sodipodi:cy="222.44577"
     sodipodi:rx="18.792261"
     sodipodi:ry="24.16148"
     d="m 247.75105,222.44577 a 18.792261,24.16148 0 1 1 -37.58453,0 18.792261,24.16148 0 1 1 37.58453,0 z"
     transform="matrix(1.1961767,0,0,1.40655,36.772425,-95.421035)" />
  <path
     sodipodi:type="arc"
     style="fill:#a02c2c;fill-opacity:1;stroke:#a02c2c"
     id="path3194"
     sodipodi:cx="-33.365852"
     sodipodi:cy="216.69304"
     sodipodi:rx="12.656013"
     sodipodi:ry="18.408747"
     d="m -20.70984,216.69304 a 12.656013,18.408747 0 1 1 -25.312025,0 12.656013,18.408747 0 1 1 25.312025,0 z"
     transform="matrix(1.0867871,0,0,1.1221661,347.6762,-24.938492)" />
  <path
     sodipodi:type="arc"
     style="fill:#a02c2c;fill-opacity:1;stroke:#a02c2c"
     id="path3194-7"
     sodipodi:cx="-33.365852"
     sodipodi:cy="216.69304"
     sodipodi:rx="12.656013"
     sodipodi:ry="18.408747"
     d="m -20.70984,216.69304 a 12.656013,18.408747 0 1 1 -25.312025,0 12.656013,18.408747 0 1 1 25.312025,0 z"
     transform="matrix(1.0867871,0,0,1.1221661,240.29185,-26.472551)" />
  <path
     sodipodi:type="arc"
     style="fill:#a02c2c;fill-opacity:1;stroke:#a02c2c"
     id="path3227"
     sodipodi:cx="-95.878883"
     sodipodi:cy="250.4424"
     sodipodi:rx="13.039529"
     sodipodi:ry="12.272497"
     d="m -82.839355,250.4424 a 13.039529,12.272497 0 1 1 -26.079055,0 13.039529,12.272497 0 1 1 26.079055,0 z"
     transform="matrix(1.0023819,0,0,0.87753081,354.59674,45.245065)" />
  <path
     sodipodi:type="arc"
     style="fill:#ffb380;fill-opacity:1;stroke:#ffb380"
     id="path3229"
     sodipodi:cx="245.06644"
     sodipodi:cy="258.49622"
     sodipodi:rx="12.656013"
     sodipodi:ry="8.820857"
     d="m 257.72245,258.49622 a 12.656013,8.820857 0 1 1 -25.31203,0 12.656013,8.820857 0 1 1 25.31203,0 z"
     transform="matrix(0.90642669,0,0,1.257047,36.354721,-65.678649)" />
  <path
     transform="translate(355.90242,7.6703106)"
     d="m -90.50967,243.15561 a 6.5197644,6.5197644 0 1 1 -13.03953,0 6.5197644,6.5197644 0 1 1 13.03953,0 z"
     sodipodi:ry="6.5197644"
     sodipodi:rx="6.5197644"
     sodipodi:cy="243.15561"
     sodipodi:cx="-97.029434"
     id="path3231"
     style="fill:#a02c2c;fill-opacity:1;stroke:#a02c2c"
     sodipodi:type="arc" />
  <path
     sodipodi:type="arc"
     style="fill:#00ffff;fill-opacity:1;stroke:#00ffff"
     id="path3233"
     sodipodi:cx="-155.70731"
     sodipodi:cy="329.06308"
     sodipodi:rx="3.8351555"
     sodipodi:ry="2.6846087"
     d="m -151.87215,329.06308 a 3.8351555,2.6846087 0 1 1 -7.67031,0 3.8351555,2.6846087 0 1 1 7.67031,0 z"
     transform="translate(276.13119,-43.720772)" />
  <path
     sodipodi:type="arc"
     style="fill:#00ffff;fill-opacity:1;stroke:#00ffff"
     id="path3233-4"
     sodipodi:cx="-155.70731"
     sodipodi:cy="329.06308"
     sodipodi:rx="3.8351555"
     sodipodi:ry="2.6846087"
     d="m -151.87215,329.06308 a 3.8351555,2.6846087 0 1 1 -7.67031,0 3.8351555,2.6846087 0 1 1 7.67031,0 z"
     transform="translate(286.86962,-34.899908)" />
  <path
     sodipodi:type="arc"
     style="fill:#00ffff;fill-opacity:1;stroke:#00ffff"
     id="path3233-0"
     sodipodi:cx="-155.70731"
     sodipodi:cy="329.06308"
     sodipodi:rx="3.8351555"
     sodipodi:ry="2.6846087"
     d="m -151.87215,329.06308 a 3.8351555,2.6846087 0 1 1 -7.67031,0 3.8351555,2.6846087 0 1 1 7.67031,0 z"
     transform="translate(295.30697,-24.928504)" />
  <path
     sodipodi:type="arc"
     style="fill:#00ffff;fill-opacity:1;stroke:#00ffff"
     id="path3233-9"
     sodipodi:cx="-155.70731"
     sodipodi:cy="329.06308"
     sodipodi:rx="3.8351555"
     sodipodi:ry="2.6846087"
     d="m -151.87215,329.06308 a 3.8351555,2.6846087 0 1 1 -7.67031,0 3.8351555,2.6846087 0 1 1 7.67031,0 z"
     transform="translate(302.97728,-14.9571)" />
  <path
     sodipodi:type="arc"
     style="fill:#00ffff;fill-opacity:1;stroke:#00ffff"
     id="path3233-48"
     sodipodi:cx="-155.70731"
     sodipodi:cy="329.06308"
     sodipodi:rx="3.8351555"
     sodipodi:ry="2.6846087"
     d="m -151.87215,329.06308 a 3.8351555,2.6846087 0 1 1 -7.67031,0 3.8351555,2.6846087 0 1 1 7.67031,0 z"
     transform="translate(311.41461,-8.8208511)" />
  <path
     sodipodi:type="arc"
     style="fill:#00ffff;fill-opacity:1;stroke:#00ffff"
     id="path3233-8"
     sodipodi:cx="-155.70731"
     sodipodi:cy="329.06308"
     sodipodi:rx="3.8351555"
     sodipodi:ry="2.6846087"
     d="m -151.87215,329.06308 a 3.8351555,2.6846087 0 1 1 -7.67031,0 3.8351555,2.6846087 0 1 1 7.67031,0 z"
     transform="translate(322.15305,-3.4516336)" />
  <path
     sodipodi:type="arc"
     style="fill:#00ffff;fill-opacity:1;stroke:#00ffff"
     id="path3233-2"
     sodipodi:cx="-155.70731"
     sodipodi:cy="329.06308"
     sodipodi:rx="3.8351555"
     sodipodi:ry="2.6846087"
     d="m -151.87215,329.06308 a 3.8351555,2.6846087 0 1 1 -7.67031,0 3.8351555,2.6846087 0 1 1 7.67031,0 z"
     transform="translate(332.12446,1.917584)" />
  <path
     sodipodi:type="arc"
     style="fill:#00ffff;fill-opacity:1;stroke:#00ffff"
     id="path3233-45"
     sodipodi:cx="-155.70731"
     sodipodi:cy="329.06308"
     sodipodi:rx="3.8351555"
     sodipodi:ry="2.6846087"
     d="m -151.87215,329.06308 a 3.8351555,2.6846087 0 1 1 -7.67031,0 3.8351555,2.6846087 0 1 1 7.67031,0 z"
     transform="translate(344.39695,2.684615)" />
</svg>
