<?xml version="1.0" encoding="UTF-8" standalone="no"?>
<!-- Created with Inkscape (http://www.inkscape.org/) -->

<svg
   xmlns:dc="http://purl.org/dc/elements/1.1/"
   xmlns:cc="http://creativecommons.org/ns#"
   xmlns:rdf="http://www.w3.org/1999/02/22-rdf-syntax-ns#"
   xmlns:svg="http://www.w3.org/2000/svg"
   xmlns="http://www.w3.org/2000/svg"
   xmlns:sodipodi="http://sodipodi.sourceforge.net/DTD/sodipodi-0.dtd"
   xmlns:inkscape="http://www.inkscape.org/namespaces/inkscape"
   width="744.09448819"
   height="1052.3622047"
   id="svg2"
   version="1.1"
   inkscape:version="0.48.4 r9939"
   sodipodi:docname="New document 1">
  <defs
     id="defs4" />
  <sodipodi:namedview
     id="base"
     pagecolor="#ffffff"
     bordercolor="#666666"
     borderopacity="1.0"
     inkscape:pageopacity="0.0"
     inkscape:pageshadow="2"
     inkscape:zoom="3.959798"
     inkscape:cx="106.02073"
     inkscape:cy="995.61276"
     inkscape:document-units="px"
     inkscape:current-layer="layer1"
     showgrid="false"
     inkscape:window-width="833"
     inkscape:window-height="660"
     inkscape:window-x="50"
     inkscape:window-y="50"
     inkscape:window-maximized="0" />
  <metadata
     id="metadata7">
    <rdf:RDF>
      <cc:Work
         rdf:about="">
        <dc:format>image/svg+xml</dc:format>
        <dc:type
           rdf:resource="http://purl.org/dc/dcmitype/StillImage" />
        <dc:title></dc:title>
      </cc:Work>
    </rdf:RDF>
  </metadata>
  <g
     inkscape:label="Layer 1"
     inkscape:groupmode="layer"
     id="layer1">
    <path
       style="fill:#808000"
       d="m 30.470814,107.9389 c -0.434319,-0.34724 -0.914455,-1.15575 -1.066967,-1.79669 -0.217292,-0.91318 0.01467,-1.29571 1.071943,-1.76777 1.51902,-0.67822 2.819436,-1.64155 4.222285,-3.1278 0.524408,-0.55558 1.596227,-1.692004 2.38182,-2.52538 0.785593,-0.833376 1.576204,-1.990228 1.756915,-2.570782 0.18071,-0.580554 0.836187,-1.339806 1.456616,-1.687228 0.620429,-0.34742 1.829624,-1.690045 2.6871,-2.983611 1.707795,-2.576333 2.736533,-2.991948 8.54535,-3.452361 2.76355,-0.219043 3.141976,-0.124777 4.254921,1.059899 0.671876,0.715179 1.512568,1.300325 1.868206,1.300325 0.355638,0 1.175678,0.511389 1.822312,1.136421 0.646634,0.625032 2.247956,2.107061 3.558492,3.293398 1.350393,1.222415 2.382794,2.601495 2.382794,3.182931 0,1.579294 -2.158923,5.005878 -3.156726,5.010268 -0.486136,0.002 -0.883884,0.23117 -0.883884,0.50896 0,0.78981 -0.882855,0.59458 -1.874361,-0.41448 -2.450625,-2.49402 -9.823443,-5.47169 -12.165793,-4.913417 -1.784013,0.425199 -6.674857,2.845877 -7.703303,3.812677 -1.574855,1.48045 -3.787423,3.33671 -5.385447,4.51818 -0.891427,0.65906 -1.502647,1.38944 -1.358264,1.62305 0.410431,0.66409 -1.53301,0.49777 -2.414009,-0.20659 z"
       id="path3013"
       inkscape:connector-curvature="0" />
    <path
       style="fill:#808000"
       d="m 75.514127,106.00879 c 0,-0.29763 -0.371367,-0.91252 -0.825259,-1.36641 -0.540916,-0.54092 -0.627928,-0.89104 -0.252538,-1.01617 0.314996,-0.105 0.572721,-1.0811 0.572721,-2.16912 0,-1.91625 0.05424,-1.978215 1.73169,-1.978215 0.952429,0 2.072616,-0.340927 2.489304,-0.757615 0.416688,-0.416688 1.062735,-0.757614 1.435659,-0.757614 1.106687,0 6.465177,-5.690139 6.465177,-6.865321 0,-0.402864 0.571476,-0.992861 1.269946,-1.311106 0.81055,-0.369311 1.178926,-0.867843 1.01833,-1.378131 -0.161429,-0.512938 0.376449,-1.228371 1.500647,-1.996013 0.963744,-0.658078 1.658081,-1.348896 1.542969,-1.53515 -0.115111,-0.186254 0.836661,-0.893521 2.115048,-1.571704 1.652497,-0.876648 2.384235,-1.053378 2.531553,-0.611424 0.113966,0.3419 0.599983,0.621637 1.080037,0.621637 0.480054,0 1.360747,0.454568 1.957099,1.010152 0.59635,0.555584 1.27483,1.010153 1.50774,1.010153 0.61847,0 2.59943,1.528966 4.41711,3.409265 0.87276,0.902824 1.8548,1.641498 2.18232,1.641498 0.32751,0 0.59548,0.257446 0.59548,0.572102 0,0.634627 1.93078,2.458355 2.60266,2.458355 0.69964,0 0.48603,2.255316 -0.31375,3.31273 -0.40786,0.53923 -0.74878,2.060019 -0.75762,3.379531 -0.0141,2.10823 -0.62877,3.19845 -1.11039,1.96953 -0.0926,-0.23628 -1.15975,-1.05068 -2.37145,-1.80978 -1.9159,-1.200279 -2.5743,-1.347281 -5.05076,-1.127698 -3.591621,0.318463 -6.130672,0.856026 -6.130672,1.297978 0,0.1879 -1.136422,1.00535 -2.525382,1.81654 -1.388959,0.8112 -2.525381,1.65444 -2.525381,1.87388 0,0.21943 -0.248256,0.39897 -0.55168,0.39897 -0.303424,0 -1.12957,0.45457 -1.835881,1.01015 -1.113104,0.87557 -2.048985,1.01015 -7.024464,1.01015 -3.745247,0 -5.740263,-0.18807 -5.740263,-0.54115 z"
       id="path3015"
       inkscape:connector-curvature="0" />
    <path
       style="fill:#808000"
       d="m 124.19653,99.605144 c -0.014,-1.875096 -0.203,-4.030507 -0.42005,-4.789801 -0.4751,-1.661974 0.0454,-3.515315 0.69298,-2.467504 0.52348,0.847004 2.28538,0.0062 3.07372,-1.466836 0.29393,-0.549218 0.85935,-0.998578 1.25649,-0.998578 0.39714,0 0.99193,-0.511389 1.32175,-1.136421 0.32982,-0.625032 1.13331,-1.636959 1.78554,-2.248727 0.65222,-0.611767 1.18586,-1.337553 1.18586,-1.612858 0,-0.275304 0.43853,-0.80771 0.97451,-1.183124 0.53598,-0.375415 1.13885,-1.354261 1.33971,-2.175214 0.20086,-0.820954 0.78511,-2.034684 1.29834,-2.697179 0.51322,-0.662494 0.93313,-1.609512 0.93313,-2.104484 0,-0.494972 0.18065,-0.97571 0.40144,-1.068308 0.54524,-0.228664 2.62902,-4.326238 2.62902,-5.169744 0,-0.372422 1.13642,-1.849996 2.52538,-3.283499 1.38896,-1.433503 2.52538,-2.834172 2.52538,-3.112598 0,-1.169792 6.34579,-7.059147 9.03235,-8.382675 2.38627,-1.175594 3.35847,-1.372599 6.11994,-1.240128 1.80564,0.08662 3.54092,0.36886 3.85617,0.627203 0.31525,0.258343 2.05662,0.608239 3.8697,0.777547 1.81308,0.169309 3.56032,0.470879 3.88276,0.670156 0.74828,0.462461 1.49576,3.666784 1.5113,6.478659 0.0103,1.871084 -0.25671,2.435469 -1.88199,3.977406 -3.02009,2.865229 -3.87417,3.286699 -5.89288,2.907987 -0.99524,-0.186709 -1.80953,-0.549537 -1.80953,-0.806285 0,-0.256749 -1.04162,-0.913307 -2.31472,-1.459019 -2.43974,-1.045794 -6.27158,-1.343422 -6.27158,-0.487127 0,0.277792 -0.46798,0.505076 -1.03996,0.505076 -0.57197,0 -0.90495,0.218447 -0.73994,0.485436 0.16501,0.26699 -0.37061,1.082968 -1.19027,1.813284 -1.79014,1.59502 -3.49562,5.364829 -3.92314,8.671754 -0.28793,2.227185 -1.90023,6.621443 -2.64625,7.212272 -0.17538,0.138896 -0.91113,1.161676 -1.635,2.272843 -2.26067,3.470249 -5.21594,6.612654 -10.79625,11.479912 -3.07107,2.67864 -4.69433,3.41984 -7.48967,3.41984 l -2.13883,0 -0.0254,-3.409266 0,0 z"
       id="path3017"
       inkscape:connector-curvature="0" />
    <path
       sodipodi:type="arc"
       style="fill:#280b0b;stroke:#808000"
       id="path3021"
       sodipodi:cx="167.18025"
       sodipodi:cy="61.402534"
       sodipodi:rx="2.2728431"
       sodipodi:ry="2.2728431"
       d="m 169.4531,61.402534 a 2.2728431,2.2728431 0 1 1 -4.54569,0 2.2728431,2.2728431 0 1 1 4.54569,0 z"
       transform="translate(-2.0203051,-1.2626907)" />
  </g>
</svg>
